<svg width="180" height="44" viewBox="0 0 180 44" fill="none" xmlns="http://www.w3.org/2000/svg" role="img" aria-labelledby="splitLogoTitle">
  <title id="splitLogoTitle">Split</title>
  <rect x="1" y="1" width="42" height="42" rx="13" fill="#07100A" stroke="#163A22" stroke-width="2"/>
  <path d="M12 29L21.5 14H28L18.5 29H12Z" fill="#2BE45D"/>
  <path d="M23.5 29L33 14H39L29.5 29H23.5Z" fill="#85FFA6" fill-opacity="0.96"/>
  <circle cx="29" cy="14" r="2.5" fill="#D8FFE2"/>
  <path d="M57 29V16H60.3V29H57Z" fill="#D8FFE2"/>
  <path d="M67.4 29.3C66.1 29.3 64.95 29.08 63.95 28.64C62.97 28.18 62.16 27.53 61.52 26.69L63.65 24.58C64.23 25.22 64.86 25.69 65.54 25.99C66.24 26.29 67.03 26.44 67.91 26.44C68.79 26.44 69.46 26.28 69.92 25.96C70.38 25.62 70.61 25.17 70.61 24.61C70.61 24.13 70.46 23.76 70.16 23.5C69.86 23.22 69.47 23 68.99 22.84C68.53 22.66 68.01 22.49 67.43 22.33C66.85 22.17 66.26 21.98 65.66 21.76C65.08 21.52 64.55 21.21 64.07 20.83C63.61 20.43 63.23 19.91 62.93 19.27C62.63 18.63 62.48 17.83 62.48 16.87C62.48 15.81 62.73 14.9 63.23 14.14C63.73 13.36 64.43 12.76 65.33 12.34C66.25 11.9 67.31 11.68 68.51 11.68C69.65 11.68 70.7 11.88 71.66 12.28C72.64 12.68 73.44 13.24 74.06 13.96L71.93 16.09C71.43 15.57 70.89 15.18 70.31 14.92C69.75 14.66 69.11 14.53 68.39 14.53C67.63 14.53 67.04 14.67 66.62 14.95C66.22 15.23 66.02 15.62 66.02 16.12C66.02 16.56 66.17 16.91 66.47 17.17C66.77 17.41 67.15 17.62 67.61 17.8C68.09 17.96 68.62 18.12 69.2 18.28C69.78 18.44 70.36 18.64 70.94 18.88C71.54 19.1 72.07 19.42 72.53 19.84C73.01 20.24 73.39 20.77 73.67 21.43C73.97 22.07 74.12 22.87 74.12 23.83C74.12 25.47 73.54 26.77 72.38 27.73C71.22 28.83 69.56 29.3 67.4 29.3Z" fill="#D8FFE2"/>
  <path d="M76.9 33.8V16H80.15V17.58C80.57 16.98 81.12 16.5 81.8 16.14C82.48 15.76 83.28 15.57 84.2 15.57C85.38 15.57 86.44 15.87 87.38 16.47C88.32 17.05 89.05 17.84 89.57 18.84C90.11 19.84 90.38 20.95 90.38 22.17C90.38 23.39 90.11 24.5 89.57 25.5C89.05 26.5 88.32 27.3 87.38 27.9C86.46 28.48 85.4 28.77 84.2 28.77C83.36 28.77 82.6 28.61 81.92 28.29C81.24 27.95 80.68 27.49 80.24 26.91V33.8H76.9ZM83.58 25.72C84.28 25.72 84.9 25.56 85.44 25.24C86 24.92 86.44 24.48 86.76 23.92C87.08 23.34 87.24 22.76 87.24 22.17C87.24 21.56 87.08 20.98 86.76 20.43C86.44 19.85 86 19.4 85.44 19.08C84.9 18.76 84.28 18.6 83.58 18.6C82.88 18.6 82.25 18.76 81.68 19.08C81.13 19.4 80.69 19.85 80.36 20.43C80.04 20.98 79.88 21.56 79.88 22.17C79.88 22.76 80.04 23.34 80.36 23.92C80.69 24.48 81.13 24.92 81.68 25.24C82.25 25.56 82.88 25.72 83.58 25.72Z" fill="#D8FFE2"/>
  <path d="M92.86 29V16H96.2V29H92.86Z" fill="#D8FFE2"/>
  <path d="M94.53 14.36C93.97 14.36 93.5 14.18 93.12 13.82C92.76 13.44 92.58 12.99 92.58 12.47C92.58 11.93 92.76 11.49 93.12 11.15C93.5 10.77 93.97 10.58 94.53 10.58C95.07 10.58 95.51 10.77 95.85 11.15C96.23 11.49 96.42 11.93 96.42 12.47C96.42 12.99 96.23 13.44 95.85 13.82C95.51 14.18 95.07 14.36 94.53 14.36Z" fill="#85FFA6"/>
  <path d="M103.89 29.27C102.47 29.27 101.37 28.87 100.59 28.07C99.81 27.27 99.42 26.15 99.42 24.7V18.91H97.32V16H97.62C98.24 16 98.72 15.84 99.06 15.52C99.42 15.18 99.6 14.7 99.6 14.08V13.03H102.76V16H105.28V18.91H102.76V24.49C102.76 25.05 102.89 25.49 103.15 25.81C103.43 26.13 103.89 26.29 104.53 26.29C104.67 26.29 104.83 26.28 105.01 26.26C105.19 26.24 105.37 26.21 105.55 26.17V28.87C105.25 28.99 104.92 29.08 104.56 29.14C104.22 29.22 104 29.27 103.89 29.27Z" fill="#D8FFE2"/>
</svg>
